<?xml version="1.0" encoding="UTF-8" standalone="no"?>
<!-- Created with Inkscape (http://www.inkscape.org/) -->

<svg
   width="512"
   height="512"
   viewBox="0 0 512 512"
   version="1.1"
   id="svg1"
   sodipodi:docname="icon.svg"
   xmlns:inkscape="http://www.inkscape.org/namespaces/inkscape"
   xmlns:sodipodi="http://sodipodi.sourceforge.net/DTD/sodipodi-0.dtd"
   xmlns="http://www.w3.org/2000/svg"
   xmlns:svg="http://www.w3.org/2000/svg">
  <sodipodi:namedview
     id="namedview1"
     pagecolor="#505050"
     bordercolor="#ffffff"
     borderopacity="1"
     inkscape:showpageshadow="0"
     inkscape:pageopacity="0"
     inkscape:pagecheckerboard="1"
     inkscape:deskcolor="#d1d1d1"
     inkscape:document-units="px"
     inkscape:zoom="1.5683594"
     inkscape:cx="256"
     inkscape:cy="256"
     inkscape:window-width="1920"
     inkscape:window-height="1011"
     inkscape:window-x="0"
     inkscape:window-y="32"
     inkscape:window-maximized="1"
     inkscape:current-layer="layer1" />
  <defs
     id="defs1" />
  <g
     inkscape:label="Layer 1"
     inkscape:groupmode="layer"
     id="layer1">
    <rect
       style="fill:#26a269;fill-rule:evenodd;stroke-width:1.26787;stroke-linejoin:round"
       id="rect4"
       width="48.463093"
       height="219.52173"
       x="170.05452"
       y="-349.71881"
       rx="24.231546"
       ry="9.51717"
       transform="matrix(0.03922708,0.99923032,-0.98391747,0.17862364,0,0)" />
    <rect
       style="fill:#26a269;fill-rule:evenodd;stroke-width:1.21007;stroke-linejoin:round"
       id="rect6"
       width="51.160103"
       height="189.42537"
       x="135.12631"
       y="161.15602"
       rx="25.580051"
       ry="8.212368" />
    <rect
       style="fill:#26a269;fill-rule:evenodd;stroke-width:1.21007;stroke-linejoin:round"
       id="rect7"
       width="51.160103"
       height="189.42537"
       x="300.33804"
       y="124.69022"
       rx="25.580051"
       ry="8.212368" />
    <ellipse
       style="fill:#26a269;fill-rule:evenodd;stroke-width:1.14102;stroke-linejoin:round"
       id="path7"
       cx="187.84435"
       cy="342.08597"
       rx="53.374557"
       ry="33.349064" />
    <ellipse
       style="fill:#26a269;fill-rule:evenodd;stroke-width:1.14102;stroke-linejoin:round"
       id="ellipse7"
       cx="353.39542"
       cy="303.74762"
       rx="53.374557"
       ry="33.349064" />
    <path
       sodipodi:type="star"
       style="fill:#e5a50a;fill-rule:evenodd;stroke-width:1.5;stroke-linejoin:round"
       id="path8"
       inkscape:flatsided="false"
       sodipodi:sides="5"
       sodipodi:cx="148.34496"
       sodipodi:cy="68.614685"
       sodipodi:r1="43.880959"
       sodipodi:r2="17.523153"
       sodipodi:arg1="0.94924046"
       sodipodi:arg2="1.577559"
       inkscape:rounded="0"
       inkscape:randomized="0"
       d="m 173.89687,104.28874 -25.67042,-18.151302 -25.91356,17.802452 9.33032,-30.023079 -24.93887,-19.144004 31.43687,-0.403981 10.5005,-29.634096 10.09873,29.773404 31.42853,0.829125 -25.19551,18.804957 z"
       inkscape:transform-center-x="0.17561763"
       inkscape:transform-center-y="-1.0547254"
       transform="matrix(0.44025274,0,0,0.47479731,106.44656,54.772727)" />
    <path
       sodipodi:type="star"
       style="fill:#e5a50a;fill-rule:evenodd;stroke-width:1.5;stroke-linejoin:round"
       id="path8-5"
       inkscape:flatsided="false"
       sodipodi:sides="5"
       sodipodi:cx="148.34496"
       sodipodi:cy="68.614685"
       sodipodi:r1="43.880959"
       sodipodi:r2="17.523153"
       sodipodi:arg1="0.94924046"
       sodipodi:arg2="1.577559"
       inkscape:rounded="0"
       inkscape:randomized="0"
       d="m 173.89687,104.28874 -25.67042,-18.151302 -25.91356,17.802452 9.33032,-30.023079 -24.93887,-19.144004 31.43687,-0.403981 10.5005,-29.634096 10.09873,29.773404 31.42853,0.829125 -25.19551,18.804957 z"
       inkscape:transform-center-x="0.17561763"
       inkscape:transform-center-y="-1.0547254"
       transform="matrix(0.44025274,0,0,0.47479731,218.02312,54.256017)" />
    <path
       sodipodi:type="star"
       style="fill:#e5a50a;fill-rule:evenodd;stroke-width:1.5;stroke-linejoin:round"
       id="path8-2"
       inkscape:flatsided="false"
       sodipodi:sides="5"
       sodipodi:cx="148.34496"
       sodipodi:cy="68.614685"
       sodipodi:r1="43.880959"
       sodipodi:r2="17.523153"
       sodipodi:arg1="0.94924046"
       sodipodi:arg2="1.577559"
       inkscape:rounded="0"
       inkscape:randomized="0"
       d="m 173.89687,104.28874 -25.67042,-18.151302 -25.91356,17.802452 9.33032,-30.023079 -24.93887,-19.144004 31.43687,-0.403981 10.5005,-29.634096 10.09873,29.773404 31.42853,0.829125 -25.19551,18.804957 z"
       inkscape:transform-center-x="0.17561763"
       inkscape:transform-center-y="-1.0547254"
       transform="matrix(0.44025274,0,0,0.47479731,36.02312,126.25602)" />
    <path
       sodipodi:type="star"
       style="fill:#e5a50a;fill-rule:evenodd;stroke-width:1.5;stroke-linejoin:round"
       id="path8-7"
       inkscape:flatsided="false"
       sodipodi:sides="5"
       sodipodi:cx="148.34496"
       sodipodi:cy="68.614685"
       sodipodi:r1="43.880959"
       sodipodi:r2="17.523153"
       sodipodi:arg1="0.94924046"
       sodipodi:arg2="1.577559"
       inkscape:rounded="0"
       inkscape:randomized="0"
       d="m 173.89687,104.28874 -25.67042,-18.151302 -25.91356,17.802452 9.33032,-30.023079 -24.93887,-19.144004 31.43687,-0.403981 10.5005,-29.634096 10.09873,29.773404 31.42853,0.829125 -25.19551,18.804957 z"
       inkscape:transform-center-x="0.17561763"
       inkscape:transform-center-y="-1.0547254"
       transform="matrix(0.44025274,0,0,0.47479731,42.02312,210.25602)" />
    <path
       sodipodi:type="star"
       style="fill:#e5a50a;fill-rule:evenodd;stroke-width:1.5;stroke-linejoin:round"
       id="path8-6"
       inkscape:flatsided="false"
       sodipodi:sides="5"
       sodipodi:cx="148.34496"
       sodipodi:cy="68.614685"
       sodipodi:r1="43.880959"
       sodipodi:r2="17.523153"
       sodipodi:arg1="0.94924046"
       sodipodi:arg2="1.577559"
       inkscape:rounded="0"
       inkscape:randomized="0"
       d="m 173.89687,104.28874 -25.67042,-18.151302 -25.91356,17.802452 9.33032,-30.023079 -24.93887,-19.144004 31.43687,-0.403981 10.5005,-29.634096 10.09873,29.773404 31.42853,0.829125 -25.19551,18.804957 z"
       inkscape:transform-center-x="0.17561763"
       inkscape:transform-center-y="-1.0547254"
       transform="matrix(0.44025274,0,0,0.47479731,324.02312,167.25602)" />
    <path
       sodipodi:type="star"
       style="fill:#e5a50a;fill-rule:evenodd;stroke-width:1.5;stroke-linejoin:round"
       id="path8-61"
       inkscape:flatsided="false"
       sodipodi:sides="5"
       sodipodi:cx="148.34496"
       sodipodi:cy="68.614685"
       sodipodi:r1="43.880959"
       sodipodi:r2="17.523153"
       sodipodi:arg1="0.94924046"
       sodipodi:arg2="1.577559"
       inkscape:rounded="0"
       inkscape:randomized="0"
       d="m 173.89687,104.28874 -25.67042,-18.151302 -25.91356,17.802452 9.33032,-30.023079 -24.93887,-19.144004 31.43687,-0.403981 10.5005,-29.634096 10.09873,29.773404 31.42853,0.829125 -25.19551,18.804957 z"
       inkscape:transform-center-x="0.17561763"
       inkscape:transform-center-y="-1.0547254"
       transform="matrix(0.44025274,0,0,0.47479731,308.02312,87.256017)" />
    <path
       sodipodi:type="star"
       style="fill:#e5a50a;fill-rule:evenodd;stroke-width:1.5;stroke-linejoin:round"
       id="path8-20"
       inkscape:flatsided="false"
       sodipodi:sides="5"
       sodipodi:cx="148.34496"
       sodipodi:cy="68.614685"
       sodipodi:r1="43.880959"
       sodipodi:r2="17.523153"
       sodipodi:arg1="0.94924046"
       sodipodi:arg2="1.577559"
       inkscape:rounded="0"
       inkscape:randomized="0"
       d="m 173.89687,104.28874 -25.67042,-18.151302 -25.91356,17.802452 9.33032,-30.023079 -24.93887,-19.144004 31.43687,-0.403981 10.5005,-29.634096 10.09873,29.773404 31.42853,0.829125 -25.19551,18.804957 z"
       inkscape:transform-center-x="0.17561763"
       inkscape:transform-center-y="-1.0547254"
       transform="matrix(0.44025274,0,0,0.47479731,312.02312,207.25602)" />
    <path
       sodipodi:type="star"
       style="fill:#e5a50a;fill-rule:evenodd;stroke-width:1.5;stroke-linejoin:round"
       id="path8-9"
       inkscape:flatsided="false"
       sodipodi:sides="5"
       sodipodi:cx="148.34496"
       sodipodi:cy="68.614685"
       sodipodi:r1="43.880959"
       sodipodi:r2="17.523153"
       sodipodi:arg1="0.94924046"
       sodipodi:arg2="1.577559"
       inkscape:rounded="0"
       inkscape:randomized="0"
       d="m 173.89687,104.28874 -25.67042,-18.151302 -25.91356,17.802452 9.33032,-30.023079 -24.93887,-19.144004 31.43687,-0.403981 10.5005,-29.634096 10.09873,29.773404 31.42853,0.829125 -25.19551,18.804957 z"
       inkscape:transform-center-x="0.17561763"
       inkscape:transform-center-y="-1.0547254"
       transform="matrix(0.44025274,0,0,0.47479731,32.02312,270.25602)" />
    <path
       sodipodi:type="star"
       style="fill:#e5a50a;fill-rule:evenodd;stroke-width:1.5;stroke-linejoin:round"
       id="path8-1"
       inkscape:flatsided="false"
       sodipodi:sides="5"
       sodipodi:cx="148.34496"
       sodipodi:cy="68.614685"
       sodipodi:r1="43.880959"
       sodipodi:r2="17.523153"
       sodipodi:arg1="0.94924046"
       sodipodi:arg2="1.577559"
       inkscape:rounded="0"
       inkscape:randomized="0"
       d="m 173.89687,104.28874 -25.67042,-18.151302 -25.91356,17.802452 9.33032,-30.023079 -24.93887,-19.144004 31.43687,-0.403981 10.5005,-29.634096 10.09873,29.773404 31.42853,0.829125 -25.19551,18.804957 z"
       inkscape:transform-center-x="0.17561763"
       inkscape:transform-center-y="-1.0547254"
       transform="matrix(0.44025274,0,0,0.47479731,169.02312,361.25602)" />
    <path
       sodipodi:type="star"
       style="fill:#e5a50a;fill-rule:evenodd;stroke-width:1.5;stroke-linejoin:round"
       id="path8-19"
       inkscape:flatsided="false"
       sodipodi:sides="5"
       sodipodi:cx="148.34496"
       sodipodi:cy="68.614685"
       sodipodi:r1="43.880959"
       sodipodi:r2="17.523153"
       sodipodi:arg1="0.94924046"
       sodipodi:arg2="1.577559"
       inkscape:rounded="0"
       inkscape:randomized="0"
       d="m 173.89687,104.28874 -25.67042,-18.151302 -25.91356,17.802452 9.33032,-30.023079 -24.93887,-19.144004 31.43687,-0.403981 10.5005,-29.634096 10.09873,29.773404 31.42853,0.829125 -25.19551,18.804957 z"
       inkscape:transform-center-x="0.17561763"
       inkscape:transform-center-y="-1.0547254"
       transform="matrix(0.44025274,0,0,0.47479731,280.02312,348.25602)" />
    <path
       sodipodi:type="star"
       style="fill:#e5a50a;fill-rule:evenodd;stroke-width:1.5;stroke-linejoin:round"
       id="path8-610"
       inkscape:flatsided="false"
       sodipodi:sides="5"
       sodipodi:cx="148.34496"
       sodipodi:cy="68.614685"
       sodipodi:r1="43.880959"
       sodipodi:r2="17.523153"
       sodipodi:arg1="0.94924046"
       sodipodi:arg2="1.577559"
       inkscape:rounded="0"
       inkscape:randomized="0"
       d="m 173.89687,104.28874 -25.67042,-18.151302 -25.91356,17.802452 9.33032,-30.023079 -24.93887,-19.144004 31.43687,-0.403981 10.5005,-29.634096 10.09873,29.773404 31.42853,0.829125 -25.19551,18.804957 z"
       inkscape:transform-center-x="0.17561763"
       inkscape:transform-center-y="-1.0547254"
       transform="matrix(0.44025274,0,0,0.47479731,150.25362,80.228756)" />
    <path
       sodipodi:type="star"
       style="fill:#e5a50a;fill-rule:evenodd;stroke-width:1.5;stroke-linejoin:round"
       id="path8-0"
       inkscape:flatsided="false"
       sodipodi:sides="5"
       sodipodi:cx="148.34496"
       sodipodi:cy="68.614685"
       sodipodi:r1="43.880959"
       sodipodi:r2="17.523153"
       sodipodi:arg1="0.94924046"
       sodipodi:arg2="1.577559"
       inkscape:rounded="0"
       inkscape:randomized="0"
       d="m 173.89687,104.28874 -25.67042,-18.151302 -25.91356,17.802452 9.33032,-30.023079 -24.93887,-19.144004 31.43687,-0.403981 10.5005,-29.634096 10.09873,29.773404 31.42853,0.829125 -25.19551,18.804957 z"
       inkscape:transform-center-x="0.17561763"
       inkscape:transform-center-y="-1.0547254"
       transform="matrix(0.44025274,0,0,0.47479731,47.02312,86.256017)" />
    <path
       sodipodi:type="star"
       style="fill:#e5a50a;fill-rule:evenodd;stroke-width:1.5;stroke-linejoin:round"
       id="path8-54"
       inkscape:flatsided="false"
       sodipodi:sides="5"
       sodipodi:cx="148.34496"
       sodipodi:cy="68.614685"
       sodipodi:r1="43.880959"
       sodipodi:r2="17.523153"
       sodipodi:arg1="0.94924046"
       sodipodi:arg2="1.577559"
       inkscape:rounded="0"
       inkscape:randomized="0"
       d="m 173.89687,104.28874 -25.67042,-18.151302 -25.91356,17.802452 9.33032,-30.023079 -24.93887,-19.144004 31.43687,-0.403981 10.5005,-29.634096 10.09873,29.773404 31.42853,0.829125 -25.19551,18.804957 z"
       inkscape:transform-center-x="0.17561763"
       inkscape:transform-center-y="-1.0547254"
       transform="matrix(0.44025274,0,0,0.47479731,56.02312,329.25602)" />
    <path
       sodipodi:type="star"
       style="fill:#e5a50a;fill-rule:evenodd;stroke-width:1.5;stroke-linejoin:round"
       id="path8-69"
       inkscape:flatsided="false"
       sodipodi:sides="5"
       sodipodi:cx="148.34496"
       sodipodi:cy="68.614685"
       sodipodi:r1="43.880959"
       sodipodi:r2="17.523153"
       sodipodi:arg1="0.94924046"
       sodipodi:arg2="1.577559"
       inkscape:rounded="0"
       inkscape:randomized="0"
       d="m 173.89687,104.28874 -25.67042,-18.151302 -25.91356,17.802452 9.33032,-30.023079 -24.93887,-19.144004 31.43687,-0.403981 10.5005,-29.634096 10.09873,29.773404 31.42853,0.829125 -25.19551,18.804957 z"
       inkscape:transform-center-x="0.17561763"
       inkscape:transform-center-y="-1.0547254"
       transform="matrix(0.44025274,0,0,0.47479731,99.02312,400.25602)" />
    <path
       sodipodi:type="star"
       style="fill:#e5a50a;fill-rule:evenodd;stroke-width:1.5;stroke-linejoin:round"
       id="path8-52"
       inkscape:flatsided="false"
       sodipodi:sides="5"
       sodipodi:cx="148.34496"
       sodipodi:cy="68.614685"
       sodipodi:r1="43.880959"
       sodipodi:r2="17.523153"
       sodipodi:arg1="0.94924046"
       sodipodi:arg2="1.577559"
       inkscape:rounded="0"
       inkscape:randomized="0"
       d="m 173.89687,104.28874 -25.67042,-18.151302 -25.91356,17.802452 9.33032,-30.023079 -24.93887,-19.144004 31.43687,-0.403981 10.5005,-29.634096 10.09873,29.773404 31.42853,0.829125 -25.19551,18.804957 z"
       inkscape:transform-center-x="0.17561763"
       inkscape:transform-center-y="-1.0547254"
       transform="matrix(0.44025274,0,0,0.47479731,221.02312,327.25602)" />
    <path
       sodipodi:type="star"
       style="fill:#e5a50a;fill-rule:evenodd;stroke-width:1.5;stroke-linejoin:round"
       id="path8-44"
       inkscape:flatsided="false"
       sodipodi:sides="5"
       sodipodi:cx="148.34496"
       sodipodi:cy="68.614685"
       sodipodi:r1="43.880959"
       sodipodi:r2="17.523153"
       sodipodi:arg1="0.94924046"
       sodipodi:arg2="1.577559"
       inkscape:rounded="0"
       inkscape:randomized="0"
       d="m 173.89687,104.28874 -25.67042,-18.151302 -25.91356,17.802452 9.33032,-30.023079 -24.93887,-19.144004 31.43687,-0.403981 10.5005,-29.634096 10.09873,29.773404 31.42853,0.829125 -25.19551,18.804957 z"
       inkscape:transform-center-x="0.17561763"
       inkscape:transform-center-y="-1.0547254"
       transform="matrix(0.44025274,0,0,0.47479731,206.02312,405.25602)" />
    <path
       sodipodi:type="star"
       style="fill:#e5a50a;fill-rule:evenodd;stroke-width:1.5;stroke-linejoin:round"
       id="path8-8"
       inkscape:flatsided="false"
       sodipodi:sides="5"
       sodipodi:cx="148.34496"
       sodipodi:cy="68.614685"
       sodipodi:r1="43.880959"
       sodipodi:r2="17.523153"
       sodipodi:arg1="0.94924046"
       sodipodi:arg2="1.577559"
       inkscape:rounded="0"
       inkscape:randomized="0"
       d="m 173.89687,104.28874 -25.67042,-18.151302 -25.91356,17.802452 9.33032,-30.023079 -24.93887,-19.144004 31.43687,-0.403981 10.5005,-29.634096 10.09873,29.773404 31.42853,0.829125 -25.19551,18.804957 z"
       inkscape:transform-center-x="0.17561763"
       inkscape:transform-center-y="-1.0547254"
       transform="matrix(0.44025274,0,0,0.47479731,344.02312,323.25602)" />
    <path
       sodipodi:type="star"
       style="fill:#e5a50a;fill-rule:evenodd;stroke-width:1.5;stroke-linejoin:round"
       id="path8-4"
       inkscape:flatsided="false"
       sodipodi:sides="5"
       sodipodi:cx="148.34496"
       sodipodi:cy="68.614685"
       sodipodi:r1="43.880959"
       sodipodi:r2="17.523153"
       sodipodi:arg1="0.94924046"
       sodipodi:arg2="1.577559"
       inkscape:rounded="0"
       inkscape:randomized="0"
       d="m 173.89687,104.28874 -25.67042,-18.151302 -25.91356,17.802452 9.33032,-30.023079 -24.93887,-19.144004 31.43687,-0.403981 10.5005,-29.634096 10.09873,29.773404 31.42853,0.829125 -25.19551,18.804957 z"
       inkscape:transform-center-x="0.17561763"
       inkscape:transform-center-y="-1.0547254"
       transform="matrix(0.44025274,0,0,0.47479731,273.02312,397.25602)" />
    <path
       sodipodi:type="star"
       style="fill:#e5a50a;fill-rule:evenodd;stroke-width:1.5;stroke-linejoin:round"
       id="path8-92"
       inkscape:flatsided="false"
       sodipodi:sides="5"
       sodipodi:cx="148.34496"
       sodipodi:cy="68.614685"
       sodipodi:r1="43.880959"
       sodipodi:r2="17.523153"
       sodipodi:arg1="0.94924046"
       sodipodi:arg2="1.577559"
       inkscape:rounded="0"
       inkscape:randomized="0"
       d="m 173.89687,104.28874 -25.67042,-18.151302 -25.91356,17.802452 9.33032,-30.023079 -24.93887,-19.144004 31.43687,-0.403981 10.5005,-29.634096 10.09873,29.773404 31.42853,0.829125 -25.19551,18.804957 z"
       inkscape:transform-center-x="0.17561763"
       inkscape:transform-center-y="-1.0547254"
       transform="matrix(0.44025274,0,0,0.47479731,335.02312,394.25602)" />
    <path
       sodipodi:type="star"
       style="fill:#e5a50a;fill-rule:evenodd;stroke-width:1.5;stroke-linejoin:round"
       id="path8-926"
       inkscape:flatsided="false"
       sodipodi:sides="5"
       sodipodi:cx="148.34496"
       sodipodi:cy="68.614685"
       sodipodi:r1="43.880959"
       sodipodi:r2="17.523153"
       sodipodi:arg1="0.94924046"
       sodipodi:arg2="1.577559"
       inkscape:rounded="0"
       inkscape:randomized="0"
       d="m 173.89687,104.28874 -25.67042,-18.151302 -25.91356,17.802452 9.33032,-30.023079 -24.93887,-19.144004 31.43687,-0.403981 10.5005,-29.634096 10.09873,29.773404 31.42853,0.829125 -25.19551,18.804957 z"
       inkscape:transform-center-x="0.17561763"
       inkscape:transform-center-y="-1.0547254"
       transform="matrix(0.44025274,0,0,0.47479731,32.02312,387.25602)" />
    <path
       sodipodi:type="star"
       style="fill:#e5a50a;fill-rule:evenodd;stroke-width:1.5;stroke-linejoin:round"
       id="path8-50"
       inkscape:flatsided="false"
       sodipodi:sides="5"
       sodipodi:cx="148.34496"
       sodipodi:cy="68.614685"
       sodipodi:r1="43.880959"
       sodipodi:r2="17.523153"
       sodipodi:arg1="0.94924046"
       sodipodi:arg2="1.577559"
       inkscape:rounded="0"
       inkscape:randomized="0"
       d="m 173.89687,104.28874 -25.67042,-18.151302 -25.91356,17.802452 9.33032,-30.023079 -24.93887,-19.144004 31.43687,-0.403981 10.5005,-29.634096 10.09873,29.773404 31.42853,0.829125 -25.19551,18.804957 z"
       inkscape:transform-center-x="0.17561763"
       inkscape:transform-center-y="-1.0547254"
       transform="matrix(0.44025274,0,0,0.47479731,-6.97688,337.25602)" />
    <path
       sodipodi:type="star"
       style="fill:#e5a50a;fill-rule:evenodd;stroke-width:1.5;stroke-linejoin:round"
       id="path8-17"
       inkscape:flatsided="false"
       sodipodi:sides="5"
       sodipodi:cx="148.34496"
       sodipodi:cy="68.614685"
       sodipodi:r1="43.880959"
       sodipodi:r2="17.523153"
       sodipodi:arg1="0.94924046"
       sodipodi:arg2="1.577559"
       inkscape:rounded="0"
       inkscape:randomized="0"
       d="m 173.89687,104.28874 -25.67042,-18.151302 -25.91356,17.802452 9.33032,-30.023079 -24.93887,-19.144004 31.43687,-0.403981 10.5005,-29.634096 10.09873,29.773404 31.42853,0.829125 -25.19551,18.804957 z"
       inkscape:transform-center-x="0.17561763"
       inkscape:transform-center-y="-1.0547254"
       transform="matrix(0.44025274,0,0,0.47479731,-14.97688,280.25602)" />
  </g>
</svg>
